# xmcd
#
# Track frame offsets:
#	150
#	10852
#	28382
#	43855
#	60025
#	72897
#	92352
#	110030
#	123925
#	145582
#
# Disc length: 2206 seconds
#
# Revision: 17
# Processed by: cddbd v1.5.2PL0 Copyright (c) Steve Scherf et al.
# Submitted via: EZCDAudioConverter 6.0.5.1
#
DISCID=7d089c0a,80089d0a
DTITLE=Garth Brooks - Ropin' the Wind
DYEAR=1991
DGENRE=Country
TTITLE0=Against the Grain
TTITLE1=Rodeo
TTITLE2=What She's Doing Now
TTITLE3=Burning Bridges
TTITLE4=Papa Loved Mama
TTITLE5=Shameless
TTITLE6=Cold Shoulder
TTITLE7=We Bury the Hatchet
TTITLE8=In Lonesome Dove
TTITLE9=The River
EXTD=
EXTT0=
EXTT1=
EXTT2=
EXTT3=
EXTT4=
EXTT5=
EXTT6=
EXTT7=
EXTT8=
EXTT9=
PLAYORDER=
